<svg width="78" height="27" viewBox="0 0 78 27" fill="none" xmlns="http://www.w3.org/2000/svg">
<g clip-path="url(#clip0)">
<path d="M38.8536 1.73697C49.4459 1.50277 59.0454 2.65086 65.9982 4.68372C69.4776 5.70101 72.2659 6.93179 74.1824 8.30099C76.1078 9.67662 77.0707 11.1287 77.1028 12.5808C77.1349 14.0328 76.2372 15.526 74.3744 16.9854C72.5203 18.438 69.7891 19.7908 66.3581 20.9609C59.5019 23.2991 49.9626 24.8704 39.3703 25.1046C28.7781 25.3388 19.1786 24.1907 12.2257 22.1578C8.74636 21.1405 5.95801 19.9098 4.04156 18.5406C2.11608 17.1649 1.15323 15.7128 1.12113 14.2608C1.08902 12.8088 1.98674 11.3155 3.84953 9.85614C5.70359 8.40358 8.43482 7.05075 11.8658 5.88066C18.722 3.54246 28.2614 1.97118 38.8536 1.73697Z" stroke="currentColor"/>
<path d="M36.0737 6.41643L35.6483 9.55214L25.7077 9.76977L25.438 11.8074L35.1597 11.5896L34.7266 14.7442L25.005 14.962L24.6897 17.2223L34.7982 16.9953L34.3746 20.2084L20.128 20.5166L22.0139 6.72288L36.0737 6.41643Z" fill="currentColor"/>
<path d="M37.9953 6.37675L43.8298 6.24228L47.3471 14.7253L52.9967 6.04283L58.818 5.91401L56.9453 19.7021L52.8261 19.7909L54.1365 10.2442L47.752 19.9128L45.5216 19.9599L41.4881 10.5254L40.1777 20.0722L36.1358 20.1592L37.9953 6.37675Z" fill="currentColor"/>
</g>
</svg>
